<svg width="20" height="26" viewBox="0 0 20 26" fill="none" xmlns="http://www.w3.org/2000/svg">
<path d="M1.65452 23.1015C1.77203 24.4314 2.88601 25.4512 4.22149 25.4512H15.7303C17.0653 25.4512 18.1797 24.4314 18.2973 23.1015L19.5719 6.40283H0.379883L1.65452 23.1015ZM18.1705 7.70158L17.0036 22.9869C16.9449 23.6515 16.3974 24.1525 15.7303 24.1525H4.22149C3.5544 24.1525 3.0069 23.6515 2.94939 23.0026L1.78133 7.70158H18.1705Z" fill="#EE4C4C"/>
<path d="M6.34388 21.6405C6.63602 21.6231 6.85837 21.3721 6.84057 21.0803L6.33667 11.0275C6.31888 10.7354 6.06819 10.513 5.77606 10.5308C5.48392 10.5485 5.26157 10.7997 5.27931 11.0913L5.78321 21.1442C5.80101 21.4363 6.05214 21.6582 6.34388 21.6405Z" fill="#EE4C4C"/>
<path d="M9.97506 21.6416C10.2676 21.6416 10.5048 21.4049 10.5048 21.1123V11.0591C10.5048 10.7665 10.2676 10.5298 9.97506 10.5298C9.68252 10.5298 9.44531 10.7665 9.44531 11.0591V21.1123C9.44536 21.4049 9.68252 21.6416 9.97506 21.6416Z" fill="#EE4C4C"/>
<path d="M13.6051 21.6405C13.8973 21.6582 14.148 21.4363 14.1657 21.1442L14.6692 11.0913C14.6865 10.7997 14.4646 10.5485 14.1725 10.5308C13.8803 10.513 13.6297 10.7354 13.6119 11.0275L13.1084 21.0803C13.0907 21.372 13.313 21.6231 13.6051 21.6405Z" fill="#EE4C4C"/>
<path d="M19.0775 3.20707C19.0775 3.20707 17.3835 2.92552 16.9231 2.78559C16.5104 2.66003 12.9068 2.11124 12.9068 2.11124L12.7715 1.15201C12.6786 0.489981 12.1365 0 11.4982 0H9.97455H8.45092C7.81341 0 7.27143 0.489981 7.17758 1.15201L7.04232 2.11124C7.04232 2.11124 3.43996 2.65998 3.02693 2.78559C2.56657 2.92552 0.871696 3.20707 0.871696 3.20707C0.358501 3.34865 0 3.83614 0 4.39328V5.4832H9.9746H19.95V4.39328C19.95 3.83614 19.5915 3.34865 19.0775 3.20707ZM10.985 1.9299H8.96501C8.78576 1.9299 8.64031 1.7845 8.64031 1.6052C8.64031 1.4259 8.78576 1.2805 8.96501 1.2805H10.985C11.1642 1.2805 11.3097 1.4259 11.3097 1.6052C11.3097 1.7845 11.1642 1.9299 10.985 1.9299Z" fill="#EE4C4C"/>
</svg>
