<svg width="20" height="20" viewBox="0 0 20 20" fill="none" xmlns="http://www.w3.org/2000/svg">
<g clip-path="url(#clip0_82_8)">
<path d="M19.9836 9.85192C19.9679 9.78332 19.9521 9.745 19.9379 9.70946C19.9095 9.64305 19.8823 9.59297 19.8504 9.53613C19.733 9.33192 19.5445 9.05531 19.2862 8.70738C18.9006 8.18891 18.3694 7.53199 17.7678 6.88371C17.1656 6.23543 16.4976 5.59703 15.8174 5.115C14.8555 4.4343 13.9202 3.905 12.9623 3.54531C12.0051 3.18535 11.0252 2.99844 10 2.99902C8.97477 2.99844 7.99492 3.18535 7.03766 3.54535C6.07945 3.905 5.14445 4.4343 4.18258 5.11473C3.1709 5.83379 2.17473 6.90102 1.40531 7.82801C1.02152 8.29153 0.698047 8.71856 0.464766 9.05164C0.347617 9.21852 0.253711 9.36125 0.181406 9.48176C0.144961 9.54297 0.114375 9.59762 0.085 9.65883C0.0701563 9.69004 0.0559375 9.72219 0.0401953 9.76727C0.0324609 9.79016 0.0241016 9.81672 0.0164062 9.85195C0.00898437 9.8875 0.0003125 9.93137 0 9.99965C0.0003125 10.0677 0.00894531 10.1118 0.0164062 10.1473C0.0318359 10.2159 0.0479297 10.2539 0.0621094 10.2898C0.0905469 10.3562 0.117734 10.4063 0.14957 10.4628C0.266992 10.6671 0.455469 10.9439 0.713789 11.2918C1.0991 11.8104 1.63055 12.4675 2.23219 13.1158C2.83441 13.7641 3.50246 14.4022 4.18258 14.8842C5.14445 15.5649 6.07949 16.0939 7.03766 16.4539C7.99492 16.8136 8.97477 17.0009 10 17.0002C11.0252 17.0009 12.0051 16.8136 12.9623 16.4539C13.9202 16.0939 14.8555 15.565 15.8175 14.8845C16.8291 14.1655 17.8253 13.0982 18.5947 12.1713C18.9785 11.7077 19.302 11.2807 19.5353 10.9476C19.6524 10.7805 19.7463 10.638 19.8186 10.5172C19.8551 10.456 19.8857 10.4013 19.915 10.3404C19.9296 10.3092 19.9441 10.2771 19.9598 10.2316C19.9676 10.2088 19.9759 10.1825 19.9836 10.1473C19.9911 10.1118 19.9997 10.0676 20 9.99961C19.9997 9.93133 19.9911 9.88746 19.9836 9.85192ZM17.2113 11.8437C16.5587 12.5884 15.7825 13.3603 15.0864 13.8513C14.1875 14.4875 13.3458 14.9581 12.5177 15.2689C11.6887 15.5795 10.8729 15.734 10 15.7346C9.12711 15.734 8.31133 15.5795 7.48234 15.2689C6.65422 14.9581 5.8125 14.4875 4.91367 13.8513C4.06453 13.253 3.10297 12.2402 2.38023 11.3642C2.01746 10.9263 1.71094 10.5212 1.50113 10.2215C1.44211 10.1372 1.39301 10.0643 1.35066 9.99965C1.5991 9.61805 2.13859 8.89563 2.78871 8.1559C3.44129 7.4109 4.2175 6.63934 4.91367 6.14774C5.81254 5.5118 6.65426 5.04121 7.48234 4.73039C8.31137 4.41985 9.12711 4.26535 10 4.26473C10.8729 4.26535 11.6887 4.41981 12.5177 4.73039C13.3458 5.04125 14.1875 5.51184 15.0864 6.14805C15.9355 6.74656 16.8971 7.75945 17.6198 8.63516C17.9826 9.07332 18.2891 9.47844 18.4989 9.77781C18.5579 9.86219 18.6071 9.93512 18.6494 9.99969C18.4009 10.3813 17.8614 11.1037 17.2113 11.8437Z" fill="#8D8D8D"/>
<path d="M10.0001 5.53418C7.53371 5.53418 5.53516 7.53367 5.53516 9.99914C5.53516 12.4652 7.53375 14.4641 10.0001 14.4641C12.4665 14.4641 14.4651 12.4653 14.4651 9.99914C14.4651 7.53367 12.4665 5.53418 10.0001 5.53418ZM10.0001 12.0722C8.85527 12.0722 7.92738 11.144 7.92738 9.99918C7.92738 8.85434 8.85527 7.92676 10.0001 7.92676C10.2254 7.92676 10.4414 7.96352 10.6444 8.02965L10.3539 8.91863C10.2795 9.14543 10.3302 9.39387 10.4871 9.57371C10.6441 9.75262 10.8839 9.83574 11.118 9.79281L12.037 9.62312C12.0596 9.74488 12.0729 9.87066 12.0729 9.99918C12.0729 11.144 11.145 12.0722 10.0001 12.0722Z" fill="#8D8D8D"/>
</g>
<defs>
<clipPath id="clip0_82_8">
<rect width="20" height="20" fill="white"/>
</clipPath>
</defs>
</svg>
